<svg width="81" height="63" viewBox="0 0 81 63" fill="none" xmlns="http://www.w3.org/2000/svg">
<path d="M0.704 2.232H15.968V63H0.704V2.232ZM51.7603 0.695995C59.8243 0.695995 66.6723 3.736 72.3043 9.816C77.7443 15.704 80.4643 22.744 80.4643 30.936V63H65.3923V30.936C65.3923 26.968 64.0803 23.48 61.4563 20.472C58.8963 17.4 55.6643 15.864 51.7603 15.864C47.8563 15.864 44.5923 17.4 41.9683 20.472C39.4083 23.48 38.1283 26.968 38.1283 30.936V63H23.0563V30.936C23.0563 22.744 25.8083 15.672 31.3123 9.72C36.8803 3.704 43.6963 0.695995 51.7603 0.695995Z" fill="#E473FF"/>
</svg>
